Wealthy inventor Tony Stark (Robert Downey Jr.) -- aka Iron Man -- resists calls by the American government to hand over his technology. Meanwhile, Ivan Vanko (Mickey Rourke) has constructed his own miniaturized arc reactor, causing all kinds of problems for our superhero. Sam Rockwell, Gwyneth Paltrow, Scarlett Johansson, Don Cheadle and Samuel L. Jackson co-star in director Jon Favreau's sequel based on Marvel comic book characters.

2zns9pd.png
Video
ID : 1
Format : AVC
Format/Info : Advanced Video Codec
Format profile : Main@L3.0
Format settings, CABAC : Yes
Format settings, ReFrames : 2 frames
Codec ID : avc1
Codec ID/Info : Advanced Video Coding
Duration : 2h 4mn
Bit rate mode : Variable
Bit rate : 1 048 Kbps
Width : 720 pixels
Height : 364 pixels
Display aspect ratio : 2.35:1
Frame rate mode : Variable
Frame rate : 23.976 fps
Minimum frame rate : 14.985 fps
Maximum frame rate : 29.970 fps
Color space : YUV
Chroma subsampling : 4:2:0
Bit depth : 8 bits
Scan type : Progressive
Bits/(Pixel*Frame) : 0.167
Stream size : 934 MiB (86%)
Writing library : x264 core 79

Audio
ID : 2
Format : AAC
Format/Info : Advanced Audio Codec
Format version : Version 4
Format profile : LC
Format settings, SBR : No
Codec ID : 40
Duration : 2h 4mn
Bit rate mode : Variable
Bit rate : 160 Kbps
Maximum bit rate : 216 Kbps
Channel(s) : 2 channels
Channel positions : Front: L R
Sampling rate : 48.0 KHz
Stream size : 142 MiB (13%)
Language : English